<svg width="96" height="96" xmlns="http://www.w3.org/2000/svg" xmlns:xlink="http://www.w3.org/1999/xlink" overflow="hidden"><defs><clipPath id="clip0"><rect x="552" y="562" width="96" height="96"/></clipPath></defs><g clip-path="url(#clip0)" transform="translate(-552 -562)"><path d="M602 595C602 596.105 601.105 597 600 597 598.895 597 598 596.105 598 595 598 593.895 598.895 593 600 593 601.105 593 602 593.895 602 595Z" fill="#A6A6A6"/><path d="M602 635C602 636.105 601.105 637 600 637 598.895 637 598 636.105 598 635 598 633.895 598.895 633 600 633 601.105 633 602 633.895 602 635Z" fill="#A6A6A6"/><path d="M622 614C622 615.105 621.105 616 620 616 618.895 616 618 615.105 618 614 618 612.895 618.895 612 620 612 621.105 612 622 612.895 622 614Z" fill="#A6A6A6"/><path d="M582 614C582 615.105 581.105 616 580 616 578.895 616 578 615.105 578 614 578 612.895 578.895 612 580 612 581.105 612 582 612.895 582 614Z" fill="#A6A6A6"/><path d="M602 600 598 600 598 614C598 614.5 598.2 615 598.6 615.4L608.5 625.3 611.3 622.5 602 613.2 602 600Z" fill="#A6A6A6"/><path d="M600 643C584.5 643 572 630.5 572 615 572 599.5 584.5 587 600 587 615.5 587 628 599.5 628 615 628 630.5 615.5 643 600 643L600 643ZM623.7 590.6 626.7 587.6C627.8 586.4 627.8 584.6 626.6 583.4 625.5 582.3 623.6 582.2 622.4 583.3L619 586.8C614.2 583.6 608.7 581.6 603 581.2L603 577 612 577 612 571 588 571 588 577 597 577 597 581.1C581.1 582.5 568.3 594.8 566.3 610.7 564.3 626.6 573.6 641.7 588.7 647 603.8 652.3 620.5 646.5 629 632.9 637.5 619.3 635.1 601.7 623.7 590.6L623.7 590.6Z" fill="#A6A6A6"/></g></svg>